<svg width="1440" height="323" viewBox="0 0 1440 323" fill="none" xmlns="http://www.w3.org/2000/svg">
<path d="M10.0599 103.06C104.177 98.0586 170.601 82.1513 214.132 68.3796C258.151 54.4527 289.854 39.1752 347.784 30.9614C411.679 21.835 453.428 25.9237 469.94 28.2235C492.834 31.4177 491.411 33.5898 528.862 41.0005C600.805 55.2376 614.472 48.9039 646.707 58.3406C700.153 73.9832 684.216 97.7209 740.12 124.051C780.604 143.125 847.631 158.302 908.263 147.779C965.36 137.868 971.784 112.98 1031.86 109.448C1056.53 107.997 1077.05 111.219 1118.08 117.662C1170.67 125.876 1205.98 136.006 1220.12 139.565C1262.01 150.125 1329.63 156.769 1440 135.915" stroke="white" stroke-opacity="0.5" stroke-miterlimit="10"/>
<path d="M9.42749 111.109C100.469 106.793 168.532 92.3911 216.014 78.1174C254.587 66.3627 284.005 53.4762 324.546 44.2677C333.413 42.2599 342.754 40.316 352.814 38.6367C416.206 28.0683 457.796 29.8115 475.157 30.8793C498.438 32.303 498.438 33.9275 535.142 41.1282C561.011 46.1933 579.435 49.0864 593.705 50.9847C617.964 54.2063 630.108 54.4253 649.25 60.6222C656.393 62.9154 663.096 65.7235 669.226 68.9911C697.581 84.0952 696.374 103.242 743.411 123.539C784.354 141.208 850.936 154.569 910.534 144.119C915.256 143.29 919.908 142.309 924.474 141.181C970.548 129.782 980.896 109.731 1033.7 106.583C1039.26 106.246 1044.85 106.145 1050.44 106.281C1069.21 106.701 1088.61 109.676 1119.33 114.495C1170.24 122.526 1205 132.465 1220.59 136.399C1232.01 139.253 1243.79 141.494 1255.8 143.097C1297.37 148.719 1356.11 149.303 1438.76 134.957" stroke="white" stroke-opacity="0.5" stroke-miterlimit="10"/>
<path d="M8.79517 119.871C96.7473 116.22 166.52 103.443 217.897 88.4942C258.697 76.6299 289.48 63.0772 329.274 53.4032C338.357 51.1855 347.77 48.9404 357.873 47.0148C420.762 34.9953 462.136 33.5442 480.417 34.2378C503.971 35.1505 505.538 34.9771 541.437 41.9587C566.572 46.8596 584.924 50.1725 598.922 52.4997C622.505 56.3967 633.844 57.1815 651.751 63.6156C658.574 66.0935 664.987 69.0013 670.893 72.2948C698.285 87.2986 699.636 105.296 746.73 123.768C788.134 140.022 854.271 151.567 912.833 141.19C917.791 140.277 922.376 139.365 926.673 138.269C974.199 126.661 984.718 107.541 1035.58 104.502C1041.1 104.157 1046.65 104.044 1052.19 104.164C1071.28 104.52 1090.65 107.413 1120.63 112.186C1169.86 119.998 1204.05 129.773 1221.11 133.989C1232.44 136.818 1244.11 139.064 1256 140.706C1297.19 146.456 1355.67 147.67 1437.5 134.747" stroke="white" stroke-opacity="0.5" stroke-miterlimit="10"/>
<path d="M8.17712 129.225C93.0394 126.277 164.479 115.006 219.794 99.5097C262.764 87.4629 294.956 73.2896 333.974 63.1411C343.286 60.7135 352.786 58.1763 362.903 55.9951C425.289 42.5428 466.376 39.7228 485.648 38.1895C509.49 36.3004 512.608 36.6198 547.717 43.3825C572.148 48.1008 590.429 51.8426 604.225 54.5988C627.118 59.162 637.681 60.5309 654.352 67.1932C660.804 69.8598 666.89 72.8669 672.546 76.1827C698.975 91.0769 702.97 107.915 750.007 124.553C791.928 139.392 857.562 149.13 915.09 138.817C920.005 137.904 924.56 136.992 928.829 135.924C977.777 124.06 988.513 105.907 1037.4 102.886C1042.88 102.533 1048.4 102.408 1053.9 102.512C1073.3 102.795 1092.7 105.624 1121.89 110.306C1169.43 117.89 1203.08 127.491 1221.59 132.064C1232.85 134.849 1244.42 137.097 1256.21 138.79C1297.02 144.667 1355.22 146.52 1436.22 135.011" stroke="white" stroke-opacity="0.5" stroke-miterlimit="10"/>
<path d="M7.5448 138.598C89.3316 136.335 162.409 126.588 221.677 110.534C266.831 98.2959 300.417 83.4929 338.687 72.8881C348.215 70.2505 357.787 67.4122 367.947 64.9846C429.83 50.1269 470.544 45.0709 490.893 42.1687C514.936 38.7371 519.636 38.2899 554.012 44.8336C577.796 49.3968 595.918 53.5401 609.485 56.6979C631.689 61.9182 641.461 63.8895 656.91 70.7707C662.979 73.6198 668.74 76.7236 674.156 80.0614C699.636 94.8279 706.275 110.516 753.269 125.374C795.708 138.79 860.824 146.73 917.332 136.49C922.189 135.577 926.716 134.665 930.97 133.615C981.356 121.504 992.278 104.411 1039.21 101.353C1044.66 101.004 1050.13 100.867 1055.6 100.943C1075.29 101.162 1094.63 103.918 1123.14 108.508C1169.02 115.882 1202.1 125.319 1222.06 130.22C1233.24 132.978 1244.71 135.232 1256.39 136.964C1296.85 142.979 1354.78 145.452 1434.96 135.376" stroke="white" stroke-opacity="0.5" stroke-miterlimit="10"/>
<path d="M6.94141 144.64C85.6528 143.061 160.383 134.847 223.588 118.237C270.913 105.798 305.907 90.3377 343.43 79.3131C353.159 76.4565 362.831 73.3535 373.02 70.6521C434.371 54.3889 474.755 47.1426 496.125 42.8075C520.383 37.8975 526.75 36.6107 560.292 42.9444C578.816 46.4548 596.998 50.6541 614.745 55.5206C636.302 61.3888 645.255 63.9807 659.44 71.0354C665.634 74.1293 670.549 77.4239 675.866 80.6273C700.398 95.2295 709.696 109.832 756.604 122.864C799.602 134.847 864.173 140.998 919.646 130.831C924.46 129.919 928.958 129.006 933.183 127.975C985.02 115.645 996.129 99.455 1041.11 96.4889C1046.51 96.1389 1051.94 95.9926 1057.37 96.0508C1077.37 96.2243 1096.69 98.88 1124.42 103.352C1168.61 110.489 1201.15 119.779 1222.55 125.009C1233.66 127.738 1245.04 129.994 1256.62 131.762C1296.7 137.914 1354.35 141.026 1433.71 132.365" stroke="white" stroke-opacity="0.5" stroke-miterlimit="10"/>
<path d="M6.28027 148.947C81.9018 148.035 158.285 141.345 225.442 124.197C274.937 111.557 311.31 95.4211 348.115 84.0405C358.06 80.9558 367.804 77.5791 378.036 74.6221C438.927 56.9808 478.994 47.5533 501.37 41.7671C525.801 35.4243 533.82 33.2522 566.587 39.3669C584.947 42.7936 602.812 47.2085 619.99 52.5636C640.843 59.0616 649.035 62.2924 661.983 69.5935C667.732 72.8151 672.259 76.2466 677.533 79.4865C701.131 93.9974 713.102 107.34 759.895 118.648C803.483 129.18 867.492 133.56 921.931 123.457C926.688 122.545 931.143 121.632 935.368 120.619C988.656 108.098 999.995 92.8384 1042.97 89.9818C1048.33 89.6227 1053.71 89.4642 1059.1 89.5072C1079.4 89.6168 1098.71 92.1904 1125.69 96.6076C1168.2 103.534 1200.17 112.652 1223.04 118.228C1234.07 120.922 1245.35 123.181 1256.82 124.991C1296.55 131.279 1353.92 135.03 1432.46 127.774" stroke="white" stroke-opacity="0.5" stroke-miterlimit="10"/>
<path d="M5.66235 153.319C78.1941 153.109 156.201 147.907 227.339 130.22C278.989 117.37 316.728 100.541 352.814 88.7497C362.975 85.4186 372.819 81.768 383.08 78.5738C443.483 59.5727 483.262 48.0004 506.601 40.6993C531.363 32.9601 540.891 29.8754 572.867 35.7711C591.094 39.1619 608.665 43.8394 625.25 49.7162C645.37 56.8256 652.814 60.7317 664.541 68.2154C669.801 71.5739 673.969 75.1149 679.186 78.4186C701.864 92.7745 716.551 104.931 763.2 114.495C807.392 123.558 870.798 126.177 924.158 116.156C928.872 115.244 933.298 114.331 937.495 113.327C992.235 100.55 1003.7 86.2491 1044.78 83.4108C1050.09 83.0514 1055.44 82.8808 1060.79 82.8997C1081.39 82.8997 1100.68 85.4368 1126.89 89.781C1167.74 96.4706 1199.14 105.442 1223.47 111.338C1234.42 114.009 1245.61 116.276 1256.98 118.128C1296.33 124.516 1353.43 128.906 1431.13 123.092" stroke="white" stroke-opacity="0.5" stroke-miterlimit="10"/>
<path d="M5.02991 157.709C74.4862 158.183 154.132 154.487 229.222 136.262C283.042 123.202 322.146 105.67 357.528 93.5228C367.875 89.9726 377.835 86.0757 388.11 82.5711C448.038 62.2102 487.559 48.4932 511.847 39.6771C536.91 30.5508 547.962 26.5351 579.162 32.2118C597.25 35.5634 614.527 40.4767 630.51 46.814C650.012 54.544 656.58 59.1255 667.085 66.7916C671.871 70.2962 675.708 73.9285 680.853 77.2961C702.611 91.5059 719.986 102.448 766.491 110.297C811.315 117.863 874.103 118.757 926.472 108.8C931.143 107.888 935.54 106.975 939.708 105.999C995.914 93.03 1007.54 79.6416 1046.67 76.858C1051.95 76.4978 1057.26 76.315 1062.57 76.3104C1083.48 76.2283 1102.81 78.7107 1128.23 82.9636C1167.38 89.4342 1198.23 98.2503 1224.01 104.474C1234.89 107.128 1245.98 109.409 1257.24 111.31C1296.23 117.863 1353.05 122.855 1429.94 118.465" stroke="white" stroke-opacity="0.5" stroke-miterlimit="10"/>
<path d="M4.39758 162.08C70.7784 163.212 152.091 161.012 231.133 142.258C287.181 128.979 327.564 110.735 362.271 98.2503C372.819 94.4537 382.879 90.3103 393.183 86.5502C452.623 64.8568 491.899 49.0043 517.121 38.6276C542.544 28.1596 555.075 23.1766 585.485 28.6342C603.447 31.9743 620.435 37.1464 635.784 43.9483C654.611 52.2715 660.359 57.5648 669.643 65.4044C673.954 69.0549 677.418 72.7694 682.577 76.21C703.444 90.2647 723.535 99.9386 769.868 106.126C815.324 112.177 877.48 111.365 928.829 101.481C933.442 100.568 937.811 99.6557 941.964 98.7431C999.621 85.5737 1011.42 73.0979 1048.58 70.3874C1053.83 70.0081 1059.11 69.8131 1064.39 69.8033C1085.6 69.712 1104.86 72.0575 1129.6 76.1918C1167.06 82.4434 1197.36 91.1043 1224.6 97.657C1234.45 100.03 1245.36 102.375 1257.56 104.474C1296.17 111.155 1352.72 116.786 1428.78 113.811" stroke="white" stroke-opacity="0.5" stroke-miterlimit="10"/>
<path d="M3.76526 166.324C66.9988 168.149 149.964 167.456 232.987 148.181C291.133 134.683 332.91 115.709 366.956 102.896C377.691 98.8526 387.866 94.472 398.199 90.4381C457.207 67.4122 496.268 49.4333 522.323 37.5051C548.105 25.6408 562.103 19.7451 591.736 24.9837C609.594 28.3152 626.312 33.7382 641.03 40.9731C659.21 49.8987 664.024 55.913 672.172 63.9077C676.01 67.7043 679.128 71.51 684.172 75.0145C704.148 88.8957 726.941 97.3559 773.087 101.846C819.233 106.336 880.714 103.854 931.028 94.043C935.598 93.1304 939.938 92.2177 944.062 91.3051C1003.19 77.935 1015.16 66.3718 1050.41 63.7252C1055.6 63.3397 1060.83 63.1356 1066.06 63.1137C1087.62 62.9403 1106.82 65.2219 1130.73 69.3014C1166.53 75.3248 1196.25 83.8397 1224.96 90.7119C1234.76 93.0665 1245.59 95.4029 1257.64 97.5476C1295.89 104.356 1352.16 110.617 1427.4 109.074" stroke="white" stroke-opacity="0.5" stroke-miterlimit="10"/>
<path d="M3.14722 170.513C63.3484 173.041 147.88 173.817 234.884 154.031C295.243 140.341 338.271 120.592 371.655 107.486C382.592 103.188 392.881 98.5788 403.272 94.2712C461.82 69.9037 500.68 49.8257 527.554 36.2913C553.753 23.131 569.231 16.2132 597.974 21.2419C617.059 24.5821 634.39 31.4908 646.247 37.9066C663.794 47.4163 667.804 54.1699 674.687 62.3197C678.022 66.2623 680.81 70.1593 685.782 73.7368C704.881 87.4264 730.333 94.6271 776.321 97.4654C823.071 100.377 883.962 96.2516 933.241 86.5138C937.753 85.6011 942.065 84.6885 946.175 83.7758C1006.75 70.1958 1018.88 59.5453 1052.15 56.9717C1057.31 56.5805 1062.49 56.3642 1067.68 56.3237C1089.51 56.059 1108.71 58.2859 1131.95 62.2832C1166.07 68.0876 1195.19 76.4474 1225.37 83.6481C1235.12 85.9753 1245.86 88.3208 1257.76 90.4929C1295.64 97.438 1351.65 104.328 1426.05 104.182" stroke="white" stroke-opacity="0.5" stroke-miterlimit="10"/>
<path d="M2.51477 174.647C59.6405 177.869 145.739 180.014 236.766 159.817C299.181 145.799 343.617 125.41 376.369 111.985C387.478 107.422 397.926 102.594 408.287 98.013C466.433 72.3587 505.106 50.1086 532.8 35.0409C559.43 20.5482 576.23 12.663 604.311 17.4635C622.721 20.6395 639.966 27.9132 651.55 34.8036C668.464 44.8974 671.511 52.3811 677.274 60.6952C680.148 64.7838 682.577 68.7538 687.492 72.4044C705.715 85.9479 733.868 91.8253 779.684 93.0939C827.109 94.399 887.339 88.6584 935.583 78.9845C940.057 78.0779 944.335 77.1653 948.417 76.2466C1010.47 62.484 1022.76 52.7279 1054.07 50.2272C1059.19 49.8255 1064.33 49.597 1069.48 49.5428C1091.61 49.2051 1110.81 51.368 1133.3 55.2741C1165.72 60.8504 1194.31 69.1006 1225.97 76.5934C1235.68 78.9115 1246.32 81.2387 1258.09 83.4473C1295.6 90.5294 1351.33 98.0495 1424.91 99.3455" stroke="white" stroke-opacity="0.5" stroke-miterlimit="10"/>
<path d="M1.88269 178.718C55.9186 182.615 143.67 186.265 238.649 165.539C303.234 151.311 348.977 130.138 381.083 116.448C392.364 111.639 402.927 106.574 413.332 101.718C471.061 74.759 509.619 50.3733 538.031 33.7176C565.121 17.8833 583.301 8.99425 610.534 13.5848C628.283 16.5874 645.456 24.2353 656.738 31.6186C673.049 42.2964 675.133 50.5284 679.732 58.9977C682.06 63.2415 684.23 67.2936 689.059 71.008C706.52 84.3691 737.361 89.8449 782.989 88.6128C830.961 87.3169 890.659 80.9558 937.883 71.3548C942.309 70.4483 946.553 69.5356 950.616 68.6169C1014.17 54.7266 1026.58 45.801 1055.94 43.3733C1061.02 42.9683 1066.12 42.7307 1071.23 42.6615C1093.67 42.2599 1112.91 44.3407 1134.58 48.1373C1165.26 53.5401 1193.35 61.69 1226.46 69.4565C1236.13 71.7564 1246.68 74.0836 1258.29 76.3287C1295.44 83.5477 1350.9 91.6975 1423.65 94.4172" stroke="white" stroke-opacity="0.5" stroke-miterlimit="10"/>
<path d="M1.19287 182.742C52.1533 187.306 141.543 192.48 240.474 171.216C307.229 156.778 354.194 134.829 385.725 120.829C397.222 115.755 407.899 110.48 418.304 105.314C475.646 77.0223 513.988 50.5558 543.219 32.303C570.826 15.1454 590.414 5.30718 616.886 9.6696C633.959 12.4988 651.061 20.5117 662.055 28.3878C677.763 39.6315 678.841 48.6119 682.362 57.2272C684.172 61.6261 686.055 65.7512 690.812 69.5478C707.339 82.7263 740.738 85.9753 786.28 84.077C834.884 82.0783 893.95 73.1984 940.139 63.6704C944.45 62.7578 948.762 61.8451 952.771 60.9325C1017.77 46.8322 1030.38 38.8101 1057.78 36.4647C1062.81 36.0486 1067.87 35.7988 1072.94 35.7163C1095.68 35.2417 1114.85 37.2587 1135.83 40.9822C1164.91 46.1204 1192.37 54.0695 1226.93 62.2102C1236.57 64.4918 1247.05 66.7734 1258.55 69.1006C1295.32 76.4017 1350.52 85.2269 1422.38 89.3703" stroke="white" stroke-opacity="0.5" stroke-miterlimit="10"/>
<path d="M0.632324 186.721C48.503 191.987 139.516 198.65 242.429 176.856C311.411 162.208 359.554 139.438 390.453 125.191C402.065 119.843 412.958 114.367 423.363 108.946C480.402 79.4499 518.501 50.7201 548.393 30.8976C576.445 12.3619 597.327 1.57449 623.123 5.73612C639.521 8.3919 656.58 16.7699 667.272 25.1297C682.39 36.994 682.433 46.668 684.877 55.4475C686.127 60.0107 687.751 64.1997 692.421 68.0693C708.115 81.0653 744.158 82.9271 789.528 79.5229C838.721 75.8724 897.226 65.4227 942.366 55.9586C946.678 55.046 950.889 54.1333 954.898 53.2937C1021.37 38.9835 1034.11 31.8376 1059.58 29.5651C1064.6 29.155 1069.66 28.9113 1074.73 28.835C1095.81 28.3308 1116.88 30.0265 1137.1 33.8545C1164.49 38.7736 1191.39 46.5676 1227.42 55.0368C1237.02 57.2911 1247.4 59.6 1258.71 61.9364C1311.58 72.6813 1365.95 80.202 1421.07 84.3964" stroke="white" stroke-opacity="0.5" stroke-miterlimit="10"/>
<path d="M0 190.673C44.7952 196.624 137.447 204.792 244.311 182.459C315.406 167.602 364.829 144.065 395.21 129.526C530.055 64.939 572.738 -7.19597 629.461 1.75701C645.183 4.23939 662.199 12.9825 672.575 21.8351C694.735 40.7267 680.766 55.0551 694.132 66.5543C726.898 94.7549 874.29 63.2597 957.126 45.5637C1037.89 28.3057 1040.88 22.7477 1076.41 21.8351C1138.42 20.2197 1170.65 36.0357 1258.92 54.69C1311.4 65.7281 1365.24 73.9704 1419.88 79.3313" stroke="white" stroke-opacity="0.5" stroke-miterlimit="10"/>
<path d="M0 193.283C45.988 199.79 135.765 207.247 237.931 185.873C308.45 171.079 355.775 147.314 388.383 132.027C518.644 71.0354 559.272 4.97861 617.059 10.8743C639.636 13.1741 662.558 17.7829 677.691 24.8468C707.425 38.7371 696.374 51.1581 713.619 62.2649C751.373 86.5959 888.848 59.2806 967.717 43.0448C1044.55 27.174 1047.65 22.6838 1085.2 23.5964C1147.6 25.1114 1178.37 39.1113 1261.52 57.0173C1313.4 68.1829 1366.82 76.2222 1421.07 81.0288" stroke="white" stroke-opacity="0.5" stroke-miterlimit="10"/>
<path d="M0 196.003C76.694 207.215 156.751 204.927 231.55 189.386C301.495 174.665 346.635 150.654 381.557 134.628C507.061 77.0771 546.352 16.1128 604.671 20.0919C634.261 22.118 662.084 22.629 682.807 27.968C718.362 37.0944 711.435 47.2247 733.107 58.085C774.51 78.8111 903.406 55.4019 978.323 40.6263C1051.09 26.1427 1054.32 22.629 1094.01 25.4582C1156.64 29.9119 1186.09 42.3785 1264.12 59.454C1315.39 70.7394 1368.37 78.5763 1422.21 82.8358" stroke="white" stroke-opacity="0.5" stroke-miterlimit="10"/>
<path d="M0 200.84C74.4608 212.186 152.422 210.17 225.183 195.017C294.539 180.36 337.509 156.102 374.731 139.346C495.219 85.1174 533.849 35.6889 592.268 31.4269C628.814 28.762 661.135 29.8571 687.938 33.1974C728.436 38.2352 726.079 45.4176 752.608 56.0134C796.527 73.5543 917.993 53.7318 988.915 40.3251C1057.72 27.32 1060.93 24.6095 1102.81 29.4282C1165.64 36.6563 1193.79 47.7449 1266.74 63.999C1317.39 75.4177 1369.96 83.0561 1423.39 86.7602" stroke="white" stroke-opacity="0.5" stroke-miterlimit="10"/>
<path d="M0 208.205C72.2218 219.679 148.085 217.926 218.802 203.149C287.583 188.547 328.369 164.042 367.904 146.565C483.291 95.558 521.519 50.8478 579.88 45.2625C623.238 41.1191 661.523 34.7854 693.054 40.9274C736.441 49.3785 738.065 49.9625 772.096 56.4423C813.04 76.1644 932.565 54.5349 999.521 42.5245C1064.34 30.934 1067.53 29.0175 1111.62 35.9079C1174.61 45.7553 1201.48 55.6483 1269.34 71.0445C1319.38 82.5927 1371.54 90.0302 1424.55 93.176" stroke="white" stroke-opacity="0.5" stroke-miterlimit="10"/>
<path d="M0 215.743C69.9796 227.354 143.749 225.89 212.45 211.527C280.656 196.998 319.243 172.22 361.107 154.031C471.277 106.154 509.073 65.7512 567.42 59.3445C617.72 53.8322 659.569 45.0891 698.199 48.913C748.009 53.8413 752.421 51.9065 791.612 57.1268C834.568 74.6768 947.123 55.5114 1010.05 44.9705C1070.87 34.7945 1074.06 33.5807 1120.35 42.6341C1183.59 54.973 1209.1 63.8164 1271.88 78.3365C1321.32 90.0152 1373.07 97.2524 1425.66 99.8383" stroke="white" stroke-opacity="0.5" stroke-miterlimit="10"/>
<path d="M0 223.428C67.7212 235.151 139.377 233.96 206.041 220.005C273.672 205.54 310.031 180.488 354.251 161.596C459.162 116.777 496.527 80.4629 555.09 73.5269C612.187 66.7642 658.362 61.2154 703.286 56.9899C758.759 51.7696 766.721 53.9325 811.071 57.9025C856.11 73.3352 961.681 56.6248 1020.72 47.5167C1077.54 38.7554 1080.73 38.1895 1129.22 49.4606C1192.57 64.1906 1216.81 72.1214 1274.49 85.738C1323.31 97.5426 1374.67 104.58 1426.82 106.61" stroke="white" stroke-opacity="0.5" stroke-miterlimit="10"/>
<path d="M0 231.213C53.5042 241.042 125.749 244.355 199.674 228.593C266.774 214.283 300.848 188.848 347.425 169.272C446.975 127.436 483.952 95.0743 542.687 87.8188C606.726 79.9154 657.658 72.1853 708.417 65.1763C769.207 56.7709 782.429 50.9026 830.573 58.7878C880.455 66.9559 976.24 57.8752 1031.31 50.1725C1084.14 42.8166 1087.36 42.8714 1138.02 56.3876C1201.68 73.4265 1224.47 80.5542 1277.16 93.2399C1309.91 101.125 1359.32 111.438 1428.06 113.482" stroke="white" stroke-opacity="0.5" stroke-miterlimit="10"/>
<path d="M0 239.134C54.7545 249.502 124.067 252.121 193.293 237.309C259.818 223.072 291.636 197.308 340.599 177.075C434.716 138.169 471.162 109.667 530.299 102.239C601.293 93.3129 657.082 83.3378 713.533 73.4904C779.799 61.9273 796.34 53.1294 850.06 59.8008C901.264 66.1893 990.783 59.1802 1041.92 52.956C1090.78 47.0056 1094.11 47.5532 1146.83 63.4514C1210.81 82.7354 1232.11 89.1513 1279.76 100.87C1312.04 108.809 1360.71 119.122 1429.22 120.491" stroke="white" stroke-opacity="0.5" stroke-miterlimit="10"/>
<path d="M0 247.147C56.0479 258.099 122.386 259.979 186.913 246.125C252.862 231.961 282.395 205.859 333.772 184.978C422.414 148.947 458.371 124.27 517.897 116.759C595.918 106.911 656.58 94.618 718.649 81.9049C790.505 67.1932 810.266 55.6665 869.547 60.9142C922.146 65.5687 1005.33 60.6313 1052.51 55.8399C1097.32 51.2767 1100.87 52.3263 1155.62 70.6156C1220 92.1082 1239.72 97.8761 1282.36 108.6C1314.18 116.603 1362.09 126.953 1430.39 127.592" stroke="white" stroke-opacity="0.5" stroke-miterlimit="10"/>
<path d="M0 255.279C57.2407 266.751 120.719 267.946 180.532 255.051C245.907 240.95 273.126 214.484 326.946 192.991C410.055 159.789 444.546 134.482 505.509 131.388C591.938 126.998 656.12 106.017 723.765 90.4289C801.269 72.5777 827.238 49.3602 889.035 62.1371C940.656 72.8424 1019.81 62.1371 1063.11 58.8334C1103.9 55.6848 1107.66 57.1724 1164.43 77.8801C1229.26 101.545 1247.31 106.747 1284.96 116.439C1316.31 124.516 1363.49 134.874 1431.55 134.811" stroke="white" stroke-opacity="0.5" stroke-miterlimit="10"/>
<path d="M0 263.675C58.491 275.704 119.037 276.16 174.165 264.296C238.951 250.259 263.828 223.391 320.12 201.324C397.725 170.905 431.741 150.061 493.107 146.337C586.52 140.651 655.717 117.744 728.896 99.2725C812.105 78.2818 840.086 53.5402 908.537 63.6796C962.831 71.729 1034.4 64.0264 1073.71 62.1463C1110.48 60.3849 1114.58 62.3015 1173.23 85.4734C1238.57 111.283 1254.9 115.965 1287.58 124.598C1318.43 132.757 1364.88 143.106 1432.73 142.34" stroke="white" stroke-opacity="0.5" stroke-miterlimit="10"/>
<path d="M0 272.601C59.7269 285.186 117.341 284.94 167.784 273.97C231.995 259.997 254.486 232.691 313.293 210.085C385.236 182.423 418.922 166.068 480.719 161.715C581.145 154.642 655.344 129.91 734.012 108.554C822.999 84.3964 853.293 58.6508 928.024 65.6599C984.848 70.9897 1048.91 66.2987 1084.31 65.8881C1117.05 65.5048 1121.52 67.8411 1182.04 93.4954C1247.93 121.431 1262.51 125.648 1290.18 133.195C1320.55 141.464 1366.35 151.776 1433.89 150.307" stroke="white" stroke-opacity="0.5" stroke-miterlimit="10"/>
<path d="M0 281.681C60.9772 294.823 115.66 293.856 161.404 283.854C225.04 269.936 245.102 242.137 306.467 219.056C372.79 194.105 406.06 182.268 468.316 177.303C575.698 168.742 654.999 142.276 739.128 118.036C833.978 90.721 866.831 64.3457 947.511 67.8411C1006.72 70.4057 1063.44 68.7538 1094.9 69.8398C1123.59 70.8163 1128.5 73.5543 1190.83 101.727C1257.36 131.781 1269.99 135.614 1292.78 142.002C1322.63 150.408 1367.66 160.666 1435.06 158.484" stroke="white" stroke-opacity="0.5" stroke-miterlimit="10"/>
<path d="M0 291.565C62.2275 305.255 113.935 303.521 155.023 294.531C218.041 280.586 235.645 252.304 299.641 228.821C360.316 206.553 393.183 199.252 455.928 193.685C570.208 183.545 654.683 155.445 744.187 128.313C844.786 97.8396 880.987 74.978 966.941 70.8163C1028.19 67.8594 1077.9 72.0028 1105.45 74.5855C1130.13 76.9036 1135.49 80.0614 1199.58 110.744C1266.75 142.924 1277.45 146.337 1295.32 151.585C1324.61 160.191 1368.99 170.33 1436.16 167.446" stroke="white" stroke-opacity="0.5" stroke-miterlimit="10"/>
<path d="M0 301.349C63.4635 315.595 112.254 313.149 148.656 305.118C211.085 291.237 226.103 262.279 292.814 238.495C347.828 218.883 380.278 216.136 443.526 209.975C564.69 198.175 654.381 168.514 749.375 138.507C855.852 104.858 895.459 80.0979 986.501 73.7094C1049.73 69.2922 1092.52 75.1058 1116.1 79.24C1136.78 82.8906 1142.63 86.4498 1208.44 119.679C1276.33 153.958 1284.98 157.033 1298 161.095C1326.63 170.02 1370.44 179.904 1437.4 176.317" stroke="white" stroke-opacity="0.5" stroke-miterlimit="10"/>
<path d="M0 311.141C64.6706 325.935 110.659 322.787 142.275 315.705C204.072 301.887 216.46 272.108 285.988 248.169C335.339 231.176 367.358 233.02 431.138 226.266C559.114 212.713 654.093 181.547 754.491 148.692C866.845 111.876 909.973 85.1813 1005.99 76.5934C1071.45 70.7434 1107.12 78.1631 1126.71 83.8945C1143.42 88.7862 1149.7 92.8292 1217.25 128.614C1285.87 165.001 1292.41 167.766 1300.6 170.595C1328.29 180.169 1371.82 189.487 1438.56 185.197" stroke="white" stroke-opacity="0.5" stroke-miterlimit="10"/>
</svg>
