<svg width="144" height="122" viewBox="0 0 144 122" fill="none" xmlns="http://www.w3.org/2000/svg">
<g clip-path="url(#clip0_101_490)">
<path d="M45.08 10H28.53C28.53 30.43 25.17 36.03 11.72 36.44H10V36.47V53.02C12.27 53.02 14.39 52.89 16.37 52.66L26.91 79.49H43.46L31.01 47.79C45.06 38.78 45.08 20.29 45.08 10Z" fill="white"/>
<path d="M116.82 10H110.61L99.5201 32.29L88.4201 10H87.4901C87.4901 16.4 87.4901 25.97 84.3101 34.98L91.2501 48.91L99.5201 65.53L107.79 48.91L116.81 30.78V79.5H133.36V10H116.81H116.82Z" fill="white"/>
<path d="M81.97 10H65.42C65.42 30.43 62.06 36.03 48.61 36.44H46.9V36.47V53.02C49.17 53.02 51.29 52.89 53.27 52.66L63.81 79.49H80.36L67.91 47.79C81.95 38.78 81.97 20.29 81.97 10Z" fill="#96E022"/>
</g>
<path d="M11.102 109V95.32H22.502C22.92 95.32 23.3 95.4213 23.642 95.624C23.9967 95.8267 24.2753 96.1053 24.478 96.46C24.6807 96.802 24.782 97.182 24.782 97.6V106.72C24.782 107.138 24.6807 107.524 24.478 107.879C24.2753 108.221 23.9967 108.493 23.642 108.696C23.3 108.899 22.92 109 22.502 109H11.102ZM13.382 107.461H22.502C22.7047 107.461 22.8757 107.391 23.015 107.252C23.167 107.1 23.243 106.923 23.243 106.72V97.6C23.243 97.3973 23.167 97.2263 23.015 97.087C22.8757 96.935 22.7047 96.859 22.502 96.859H13.382C13.1793 96.859 13.002 96.935 12.85 97.087C12.7107 97.2263 12.641 97.3973 12.641 97.6V106.72C12.641 106.923 12.7107 107.1 12.85 107.252C13.002 107.391 13.1793 107.461 13.382 107.461ZM33.3697 109V95.32H34.9277V109H33.3697ZM45.7932 109C45.3752 109 44.9888 108.899 44.6342 108.696C44.2922 108.493 44.0198 108.221 43.8172 107.879C43.6145 107.524 43.5132 107.138 43.5132 106.72V97.6C43.5132 97.182 43.6145 96.802 43.8172 96.46C44.0198 96.1053 44.2922 95.8267 44.6342 95.624C44.9888 95.4213 45.3752 95.32 45.7932 95.32H54.9132C55.3312 95.32 55.7112 95.4213 56.0532 95.624C56.4078 95.8267 56.6865 96.1053 56.8892 96.46C57.0918 96.802 57.1932 97.182 57.1932 97.6V98.151H55.6542V97.6C55.6542 97.3973 55.5782 97.2263 55.4262 97.087C55.2868 96.935 55.1158 96.859 54.9132 96.859H45.7932C45.5905 96.859 45.4132 96.935 45.2612 97.087C45.1218 97.2263 45.0522 97.3973 45.0522 97.6V106.72C45.0522 106.923 45.1218 107.1 45.2612 107.252C45.4132 107.391 45.5905 107.461 45.7932 107.461H54.9132C55.1158 107.461 55.2868 107.391 55.4262 107.252C55.5782 107.1 55.6542 106.923 55.6542 106.72V103.338H52.2722V101.78H57.1932V106.72C57.1932 107.138 57.0918 107.524 56.8892 107.879C56.6865 108.221 56.4078 108.493 56.0532 108.696C55.7112 108.899 55.3312 109 54.9132 109H45.7932ZM65.7447 109V95.32H67.3027V109H65.7447ZM81.2841 109V96.859H75.2041V95.32H88.8841V96.859H82.8231V109H81.2841ZM96.6131 109V97.6C96.6131 97.182 96.7145 96.802 96.9171 96.46C97.1198 96.1053 97.3921 95.8267 97.7341 95.624C98.0888 95.4213 98.4751 95.32 98.8931 95.32H108.013C108.431 95.32 108.811 95.4213 109.153 95.624C109.508 95.8267 109.786 96.1053 109.989 96.46C110.192 96.802 110.293 97.182 110.293 97.6V109H108.754V104.003H98.1521V109H96.6131ZM98.1521 102.464H108.754V97.6C108.754 97.3973 108.678 97.2263 108.526 97.087C108.387 96.935 108.216 96.859 108.013 96.859H98.8931C98.6905 96.859 98.5131 96.935 98.3611 97.087C98.2218 97.2263 98.1521 97.3973 98.1521 97.6V102.464ZM118.747 109V95.301H120.286V107.461H132.427V109H118.747Z" fill="white"/>
<defs>
<clipPath id="clip0_101_490">
<rect width="123.37" height="69.49" fill="white" transform="translate(10 10)"/>
</clipPath>
</defs>
</svg>
